/* XPM */
static char *_619160195798[] = {
/* columns rows colors chars-per-pixel */
"20 20 2 1 ",
"  c white",
". c none",
/* pixels */
"....................",
".......... .........",
"......... . ........",
"........ ..   ......",
"....... ... ... ....",
"...... .... .... ...",
"..    ..... .  .. ..",
". .. ...... ... .. .",
". .. ......   .. . .",
". .. ...... . .. . .",
". .. ...... . .. . .",
". .. ......   .. . .",
". .. ...... ... .. .",
"..    ..... .  .. ..",
"...... .... .... ...",
"....... ... ... ....",
"........ ..   ......",
"......... . ........",
".......... .........",
"...................."
};
