/* XPM */
static char *_619160834185[] = {
/* columns rows colors chars-per-pixel */
"20 20 13 1 ",
"  c black",
". c white",
"X c white",
"o c white",
"O c white",
"+ c white",
"@ c white",
"# c white",
"$ c white",
"% c white",
"& c white",
"* c white",
"= c white",
/* pixels */
"        ....        ",
"     ..........     ",
"   .....    .....   ",
"  ...          ...  ",
" ...            ... ",
"...     ....     ...",
"      ........      ",
"    .....  .....    ",
"   ...        ...   ",
"    .          .    ",
"         ..         ",
"       ......       ",
"      ...  ...      ",
"                    ",
"                    ",
"                    ",
"         ..         ",
"         ..         ",
"         ..         ",
"         ..         "
};
